<svg width="12" height="12" viewBox="0 0 12 12" fill="none" xmlns="http://www.w3.org/2000/svg">
<path d="M8.88352 1.42139H7.10679C7.10679 0.637404 6.46938 0 5.6854 0C4.90141 0 4.26401 0.637404 4.26401 1.42139H2.48728C1.89873 1.42139 1.42123 1.89889 1.42123 2.48743V10.3051C1.42123 10.8936 1.89873 11.3711 2.48728 11.3711H8.88352C9.47206 11.3711 9.94956 10.8936 9.94956 10.3051V2.48743C9.94956 1.89889 9.47206 1.42139 8.88352 1.42139ZM3.55332 9.41669C3.25793 9.41669 3.0203 9.17906 3.0203 8.88367C3.0203 8.58829 3.25793 8.35065 3.55332 8.35065C3.8487 8.35065 4.08634 8.58829 4.08634 8.88367C4.08634 9.17906 3.8487 9.41669 3.55332 9.41669ZM3.55332 7.28461C3.25793 7.28461 3.0203 7.04698 3.0203 6.75159C3.0203 6.45621 3.25793 6.21857 3.55332 6.21857C3.8487 6.21857 4.08634 6.45621 4.08634 6.75159C4.08634 7.04698 3.8487 7.28461 3.55332 7.28461ZM3.55332 5.15253C3.25793 5.15253 3.0203 4.91489 3.0203 4.61951C3.0203 4.32413 3.25793 4.08649 3.55332 4.08649C3.8487 4.08649 4.08634 4.32413 4.08634 4.61951C4.08634 4.91489 3.8487 5.15253 3.55332 5.15253ZM5.6854 0.888367C5.98078 0.888367 6.21842 1.12601 6.21842 1.42139C6.21842 1.71677 5.98078 1.95441 5.6854 1.95441C5.39002 1.95441 5.15238 1.71677 5.15238 1.42139C5.15238 1.12601 5.39002 0.888367 5.6854 0.888367ZM8.52817 9.06135C8.52817 9.15907 8.44822 9.23902 8.3505 9.23902H5.15238C5.05466 9.23902 4.9747 9.15907 4.9747 9.06135V8.706C4.9747 8.60828 5.05466 8.52833 5.15238 8.52833H8.3505C8.44822 8.52833 8.52817 8.60828 8.52817 8.706V9.06135ZM8.52817 6.92927C8.52817 7.02699 8.44822 7.10694 8.3505 7.10694H5.15238C5.05466 7.10694 4.9747 7.02699 4.9747 6.92927V6.57392C4.9747 6.4762 5.05466 6.39625 5.15238 6.39625H8.3505C8.44822 6.39625 8.52817 6.4762 8.52817 6.57392V6.92927ZM8.52817 4.79718C8.52817 4.8949 8.44822 4.97486 8.3505 4.97486H5.15238C5.05466 4.97486 4.9747 4.8949 4.9747 4.79718V4.44184C4.9747 4.34412 5.05466 4.26416 5.15238 4.26416H8.3505C8.44822 4.26416 8.52817 4.34412 8.52817 4.44184V4.79718Z" fill="white" fill-opacity="0.4"/>
</svg>
