<svg width="12" height="12" viewBox="0 0 12 12" fill="none" xmlns="http://www.w3.org/2000/svg">
<path d="M5.92229 0.947548C2.91318 0.947548 0.473633 3.11415 0.473633 5.78704C0.473633 6.94014 0.929319 7.99761 1.68724 8.82893C1.41991 9.99948 0.531099 11.0446 0.520457 11.057C0.497539 11.0833 0.482203 11.1165 0.476348 11.1523C0.470492 11.1881 0.474373 11.225 0.487512 11.2585C0.50065 11.2919 0.522469 11.3204 0.550266 11.3404C0.578064 11.3604 0.610619 11.3711 0.643903 11.3711C2.05417 11.3711 3.11261 10.6323 3.63641 10.1756C4.33217 10.462 5.10478 10.6265 5.92229 10.6265C8.93139 10.6265 11.3709 8.45992 11.3709 5.78704C11.3709 3.11415 8.93139 0.947548 5.92229 0.947548ZM6.4331 7.98435V8.39291C6.4331 8.59859 6.28071 8.76518 6.09256 8.76518H5.75202C5.56387 8.76518 5.41147 8.59859 5.41147 8.39291V7.98039C5.16841 7.94898 4.93727 7.85964 4.73508 7.71376C4.60269 7.61813 4.58992 7.40873 4.70209 7.28611L5.07498 6.87848C5.15458 6.79146 5.27313 6.77983 5.37529 6.83125C5.44298 6.86522 5.51704 6.8829 5.59366 6.8829H6.29135C6.39053 6.8829 6.47098 6.79495 6.47098 6.68699C6.47098 6.59974 6.41735 6.52227 6.34073 6.4983L5.27505 6.16559C4.80148 6.01784 4.42348 5.59066 4.36176 5.05646C4.27556 4.31029 4.76679 3.67371 5.41147 3.58949V3.18116C5.41147 2.97548 5.56387 2.80889 5.75202 2.80889H6.09256C6.28071 2.80889 6.4331 2.97548 6.4331 3.18116V3.59368C6.67616 3.62509 6.9073 3.71443 7.1095 3.86031C7.24188 3.95594 7.25465 4.16534 7.14249 4.28796L6.76959 4.69559C6.68999 4.78261 6.57144 4.79424 6.46928 4.74282C6.40075 4.70857 6.32626 4.69095 6.25091 4.69117H5.55323C5.45404 4.69117 5.37359 4.77912 5.37359 4.88708C5.37359 4.97433 5.42722 5.05181 5.50385 5.07577L6.56953 5.40848C7.04309 5.55646 7.42109 5.98341 7.48281 6.51761C7.56901 7.26354 7.07778 7.90012 6.4331 7.98435Z" fill="white" fill-opacity="0.4"/>
</svg>
