<svg width="12" height="12" viewBox="0 0 12 12" fill="none" xmlns="http://www.w3.org/2000/svg">
<path d="M10.5764 2.27522C9.91588 1.99991 9.2549 1.89517 8.59426 1.89517C6.49708 1.895 4.40006 2.95004 2.30287 2.95004C1.77691 2.95004 1.2513 2.88371 0.725341 2.71788C0.666258 2.69927 0.607005 2.69047 0.549113 2.69047C0.256083 2.69047 0 2.91586 0 3.22873V8.59718C0 8.8109 0.123104 9.01345 0.320784 9.09568C0.981253 9.37116 1.64223 9.4759 2.30287 9.4759C4.40006 9.4759 6.49725 8.42086 8.59443 8.42086C9.12039 8.42086 9.64601 8.48719 10.172 8.65302C10.231 8.67164 10.2903 8.68043 10.3482 8.68043C10.6412 8.68043 10.8973 8.45504 10.8973 8.14217V2.77389C10.8971 2.56001 10.774 2.35763 10.5764 2.27522ZM0.817285 3.59102C1.15986 3.6763 1.51743 3.71911 1.8852 3.74213C1.78509 4.23944 1.34512 4.61425 0.817285 4.61425V3.59102ZM0.817285 8.41359V7.60509C1.4025 7.60509 1.87601 8.06653 1.90206 8.64405C1.51845 8.61343 1.15986 8.53728 0.817285 8.41359ZM5.44857 7.30998C4.69615 7.30998 4.08643 6.58253 4.08643 5.68554C4.08643 4.78837 4.69632 4.06109 5.44857 4.06109C6.20081 4.06109 6.81071 4.78837 6.81071 5.68554C6.81071 6.58287 6.20064 7.30998 5.44857 7.30998ZM10.0799 7.78005C9.78154 7.70577 9.47182 7.66414 9.15496 7.63724C9.2549 7.19593 9.62319 6.86089 10.0799 6.80336V7.78005ZM10.0799 3.78477C9.55389 3.71861 9.14576 3.28221 9.12959 2.74326C9.46229 2.77998 9.77814 2.84868 10.0799 2.95749V3.78477Z" fill="white" fill-opacity="0.4"/>
</svg>
