<svg width="12" height="12" viewBox="0 0 12 12" fill="none" xmlns="http://www.w3.org/2000/svg">
<path d="M11.0304 8.2125H1.8358V2.21109C1.8358 2.03657 1.6834 1.89523 1.49526 1.89523H0.814174C0.626025 1.89523 0.473633 2.03657 0.473633 2.21109V8.84423C0.473633 9.19307 0.77863 9.47596 1.15471 9.47596H11.0304C11.2185 9.47596 11.3709 9.33461 11.3709 9.1601V8.52837C11.3709 8.35385 11.2185 8.2125 11.0304 8.2125ZM10.3493 2.52695H7.83655C7.3815 2.52695 7.15355 3.03727 7.47537 3.33576L8.16496 3.97539L6.60337 5.42402L5.04178 3.97558C4.77573 3.72882 4.34452 3.72882 4.07868 3.97558L2.6167 5.33163C2.48368 5.45501 2.48368 5.65499 2.6167 5.77838L3.09814 6.22493C3.23116 6.34832 3.44677 6.34832 3.57979 6.22493L4.56012 5.31544L6.12172 6.76387C6.38776 7.01064 6.81897 7.01064 7.08481 6.76387L9.12805 4.86869L9.81765 5.50831C10.1395 5.80681 10.6896 5.59537 10.6896 5.1733V2.84282C10.6899 2.6683 10.5375 2.52695 10.3493 2.52695Z" fill="white" fill-opacity="0.4"/>
</svg>
