<svg width="12" height="12" viewBox="0 0 12 12" fill="none" xmlns="http://www.w3.org/2000/svg">
<path d="M9.81609 3.35043H1.7027C1.51456 3.35043 1.36216 3.20656 1.36216 3.02893C1.36216 2.8513 1.51456 2.70742 1.7027 2.70742H9.87568C10.0638 2.70742 10.2162 2.56355 10.2162 2.38592C10.2162 1.85323 9.75884 1.42141 9.1946 1.42141H1.36216C0.609781 1.42141 0 1.9971 0 2.70742V9.13751C0 9.84784 0.609781 10.4235 1.36216 10.4235H9.81609C10.4125 10.4235 10.8973 9.9909 10.8973 9.45902V4.31495C10.8973 3.78306 10.4125 3.35043 9.81609 3.35043ZM8.85406 7.52999C8.47798 7.52999 8.17298 7.24204 8.17298 6.88698C8.17298 6.53192 8.47798 6.24397 8.85406 6.24397C9.23015 6.24397 9.53514 6.53192 9.53514 6.88698C9.53514 7.24204 9.23015 7.52999 8.85406 7.52999Z" fill="white" fill-opacity="0.4"/>
</svg>
