<svg width="16" height="16" viewBox="0 0 16 16" fill="none" xmlns="http://www.w3.org/2000/svg">
<rect width="15.1615" height="15.1615" rx="7.58074" fill="#FE2E00" fill-opacity="0.15"/>
<path d="M6.30722 8.12114C6.30722 8.08043 6.34053 8.04711 6.38125 8.04711H6.70698C6.7477 8.04711 6.78101 8.08043 6.78101 8.12114V9.38707H9.4091V7.95828C9.4091 6.9485 8.59032 6.12972 7.58055 6.12972C6.57077 6.12972 5.75199 6.9485 5.75199 7.95828V9.38707H6.30722V8.12114Z" fill="#492419"/>
<path d="M5.39598 6.08901L5.68914 5.79585C5.71209 5.7729 5.71209 5.73515 5.68914 5.7122L5.18648 5.20953C5.17535 5.19851 5.16031 5.19232 5.14465 5.19232C5.12898 5.19232 5.11395 5.19851 5.10282 5.20953L4.80966 5.50269C4.79864 5.51382 4.79246 5.52885 4.79246 5.54452C4.79246 5.56018 4.79864 5.57521 4.80966 5.58634L5.31233 6.08901C5.33528 6.11196 5.37229 6.11196 5.39598 6.08901ZM10.3531 5.50269L10.0599 5.20953C10.0488 5.19851 10.0338 5.19232 10.0181 5.19232C10.0024 5.19232 9.98739 5.19851 9.97626 5.20953L9.47359 5.7122C9.46257 5.72333 9.45639 5.73836 9.45639 5.75402C9.45639 5.76969 9.46257 5.78472 9.47359 5.79585L9.76675 6.08901C9.7897 6.11196 9.82746 6.11196 9.85041 6.08901L10.3531 5.58634C10.376 5.56265 10.376 5.52564 10.3531 5.50269ZM7.37334 5.12291H7.78791C7.82049 5.12291 7.84714 5.09626 7.84714 5.06369V4.35299C7.84714 4.32042 7.82049 4.29377 7.78791 4.29377H7.37334C7.34077 4.29377 7.31412 4.32042 7.31412 4.35299V5.06369C7.31412 5.09626 7.34077 5.12291 7.37334 5.12291ZM9.94961 10.3939H5.21165C5.08061 10.3939 4.97475 10.4998 4.97475 10.6308V10.8085C4.97475 10.841 5.0014 10.8677 5.03397 10.8677H10.1273C10.1599 10.8677 10.1865 10.841 10.1865 10.8085V10.6308C10.1865 10.4998 10.0806 10.3939 9.94961 10.3939ZM5.21905 9.6832C5.21905 9.81423 5.32491 9.9201 5.45595 9.9201H9.70531C9.83634 9.9201 9.9422 9.81423 9.9422 9.6832V7.95829C9.9422 6.65387 8.88505 5.59671 7.58063 5.59671C6.27621 5.59671 5.21905 6.65387 5.21905 7.95829V9.6832ZM5.75207 7.95829C5.75207 6.94851 6.57085 6.12973 7.58063 6.12973C8.5904 6.12973 9.40918 6.94851 9.40918 7.95829V9.38708H6.7811V8.12115C6.7811 8.08044 6.74778 8.04712 6.70707 8.04712H6.38133C6.34061 8.04712 6.3073 8.08044 6.3073 8.12115V9.38708H5.75207V7.95829Z" fill="#FE2E00"/>
</svg>
