<svg width="12" height="12" viewBox="0 0 12 12" fill="none" xmlns="http://www.w3.org/2000/svg">
<path d="M0 9.50978C0 10.0142 0.406757 10.4235 0.908109 10.4235H9.9892C10.4906 10.4235 10.8973 10.0142 10.8973 9.50978V6.15937H0V9.50978ZM3.63244 8.2153C3.63244 8.08966 3.7346 7.98687 3.85946 7.98687H6.43244C6.5573 7.98687 6.65947 8.08966 6.65947 8.2153V8.97676C6.65947 9.1024 6.5573 9.2052 6.43244 9.2052H3.85946C3.7346 9.2052 3.63244 9.1024 3.63244 8.97676V8.2153ZM1.21081 8.2153C1.21081 8.08966 1.31297 7.98687 1.43784 7.98687H2.8C2.92487 7.98687 3.02703 8.08966 3.02703 8.2153V8.97676C3.02703 9.1024 2.92487 9.2052 2.8 9.2052H1.43784C1.31297 9.2052 1.21081 9.1024 1.21081 8.97676V8.2153ZM10.8973 2.80895V3.7227H0V2.80895C0 2.30449 0.406757 1.8952 0.908109 1.8952H9.9892C10.4906 1.8952 10.8973 2.30449 10.8973 2.80895Z" fill="white" fill-opacity="0.4"/>
</svg>
